HIERARCHY
ROOT Hips
{
    OFFSET   0.000000   0.000000   0.000000
    CHANNELS 6 Xposition Yposition Zposition Zrotation Xrotation Yrotation
    JOINT Chest
    {
        OFFSET   0.000000   8.007230   0.000000
        CHANNELS 3 Zrotation Xrotation Yrotation
        JOINT Chest2
        {
            OFFSET   0.000000  22.077100   0.000000
            CHANNELS 3 Zrotation Xrotation Yrotation
            JOINT Neck
            {
                OFFSET   0.000000  23.254700   0.000000
                CHANNELS 3 Zrotation Xrotation Yrotation
                JOINT Head
                {
                    OFFSET   0.000010  14.370000   1.956610
                    CHANNELS 3 Zrotation Xrotation Yrotation
                    End Site
                    {
                        OFFSET   0.000000  19.566000   0.000000
                    }
                }
            }
            JOINT LeftCollar
            {
                OFFSET   3.911900  19.017000  -0.467063
                CHANNELS 3 Zrotation Xrotation Yrotation
                JOINT LeftShoulder
                {
                    OFFSET  10.383700   0.000000   0.000000
                    CHANNELS 3 Zrotation Xrotation Yrotation
                    JOINT LeftElbow
                    {
                        OFFSET  26.662100   0.001671   0.000522
                        CHANNELS 3 Zrotation Xrotation Yrotation
                        JOINT LeftWrist
                        {
                            OFFSET  28.869000   0.000037  -0.000114
                            CHANNELS 3 Zrotation Xrotation Yrotation
                            JOINT LeftFinger0
                            {
                                OFFSET   2.044650  -2.323450   3.252850
                                CHANNELS 3 Zrotation Xrotation Yrotation
                                JOINT LeftFinger01
                                {
                                    OFFSET   3.088140   0.000000   0.000000
                                    CHANNELS 3 Zrotation Xrotation Yrotation
                                    JOINT LeftFinger02
                                    {
                                        OFFSET   2.639460   0.000000   0.000000
                                        CHANNELS 3 Zrotation Xrotation Yrotation
                                        End Site
                                        {
                                            OFFSET   2.582190   0.000000   0.000000
                                        }
                                    }
                                }
                            }
                            JOINT LeftFinger1
                            {
                                OFFSET   8.364480   0.000000   3.252850
                                CHANNELS 3 Zrotation Xrotation Yrotation
                                JOINT LeftFinger11
                                {
                                    OFFSET   4.646930   0.000000   0.000000
                                    CHANNELS 3 Zrotation Xrotation Yrotation
                                    JOINT LeftFinger12
                                    {
                                        OFFSET   2.323470   0.000000   0.000000
                                        CHANNELS 3 Zrotation Xrotation Yrotation
                                        End Site
                                        {
                                            OFFSET   2.273050   0.000000   0.000000
                                        }
                                    }
                                }
                            }
                            JOINT LeftFinger2
                            {
                                OFFSET   8.364490   0.000016   1.078090
                                CHANNELS 3 Zrotation Xrotation Yrotation
                                JOINT LeftFinger21
                                {
                                    OFFSET   5.111620   0.000000   0.000000
                                    CHANNELS 3 Zrotation Xrotation Yrotation
                                    JOINT LeftFinger22
                                    {
                                        OFFSET   2.788150   0.000013   0.000000
                                        CHANNELS 3 Zrotation Xrotation Yrotation
                                        End Site
                                        {
                                            OFFSET   2.727660   0.000000   0.000000
                                        }
                                    }
                                }
                            }
                            JOINT LeftFinger3
                            {
                                OFFSET   7.899780   0.000016  -1.078090
                                CHANNELS 3 Zrotation Xrotation Yrotation
                                JOINT LeftFinger31
                                {
                                    OFFSET   4.646930   0.000000   0.000000
                                    CHANNELS 3 Zrotation Xrotation Yrotation
                                    JOINT LeftFinger32
                                    {
                                        OFFSET   2.323470   0.000000   0.000000
                                        CHANNELS 3 Zrotation Xrotation Yrotation
                                        End Site
                                        {
                                            OFFSET   2.273050   0.000000   0.000000
                                        }
                                    }
                                }
                            }
                            JOINT LeftFinger4
                            {
                                OFFSET   7.435080   0.000000  -3.252850
                                CHANNELS 3 Zrotation Xrotation Yrotation
                                JOINT LeftFinger41
                                {
                                    OFFSET   3.717550   0.000000   0.000000
                                    CHANNELS 3 Zrotation Xrotation Yrotation
                                    JOINT LeftFinger42
                                    {
                                        OFFSET   1.858760   0.000000   0.000000
                                        CHANNELS 3 Zrotation Xrotation Yrotation
                                        End Site
                                        {
                                            OFFSET   1.818440   0.000000   0.000000
                                        }
                                    }
                                }
                            }
                        }
                    }
                }
            }
            JOINT RightCollar
            {
                OFFSET  -3.911900  19.017000  -0.467064
                CHANNELS 3 Zrotation Xrotation Yrotation
                JOINT RightShoulder
                {
                    OFFSET -10.383700   0.000000   0.000000
                    CHANNELS 3 Zrotation Xrotation Yrotation
                    JOINT RightElbow
                    {
                        OFFSET -26.662100   0.001633   0.000260
                        CHANNELS 3 Zrotation Xrotation Yrotation
                        JOINT RightWrist
                        {
                            OFFSET -28.869000  -0.000045  -0.000080
                            CHANNELS 3 Zrotation Xrotation Yrotation
                            JOINT RightFinger0
                            {
                                OFFSET  -2.044660  -2.323490   3.252850
                                CHANNELS 3 Zrotation Xrotation Yrotation
                                JOINT RightFinger01
                                {
                                    OFFSET  -3.088140   0.000000   0.000000
                                    CHANNELS 3 Zrotation Xrotation Yrotation
                                    JOINT RightFinger02
                                    {
                                        OFFSET  -2.639450   0.000000   0.000000
                                        CHANNELS 3 Zrotation Xrotation Yrotation
                                        End Site
                                        {
                                            OFFSET  -2.582190   0.000000   0.000000
                                        }
                                    }
                                }
                            }
                            JOINT RightFinger1
                            {
                                OFFSET  -8.364480   0.000000   3.252850
                                CHANNELS 3 Zrotation Xrotation Yrotation
                                JOINT RightFinger11
                                {
                                    OFFSET  -4.646920   0.000000   0.000000
                                    CHANNELS 3 Zrotation Xrotation Yrotation
                                    JOINT RightFinger12
                                    {
                                        OFFSET  -2.323470   0.000000   0.000000
                                        CHANNELS 3 Zrotation Xrotation Yrotation
                                        End Site
                                        {
                                            OFFSET  -2.273050   0.000000   0.000000
                                        }
                                    }
                                }
                            }
                            JOINT RightFinger2
                            {
                                OFFSET  -8.364480   0.000000   1.078090
                                CHANNELS 3 Zrotation Xrotation Yrotation
                                JOINT RightFinger21
                                {
                                    OFFSET  -5.111610   0.000000   0.000000
                                    CHANNELS 3 Zrotation Xrotation Yrotation
                                    JOINT RightFinger22
                                    {
                                        OFFSET  -2.788160   0.000000   0.000000
                                        CHANNELS 3 Zrotation Xrotation Yrotation
                                        End Site
                                        {
                                            OFFSET  -2.727660   0.000000   0.000000
                                        }
                                    }
                                }
                            }
                            JOINT RightFinger3
                            {
                                OFFSET  -7.899780   0.000000  -1.078090
                                CHANNELS 3 Zrotation Xrotation Yrotation
                                JOINT RightFinger31
                                {
                                    OFFSET  -4.646930   0.000000   0.000000
                                    CHANNELS 3 Zrotation Xrotation Yrotation
                                    JOINT RightFinger32
                                    {
                                        OFFSET  -2.323470   0.000000   0.000000
                                        CHANNELS 3 Zrotation Xrotation Yrotation
                                        End Site
                                        {
                                            OFFSET  -2.273050   0.000000   0.000000
                                        }
                                    }
                                }
                            }
                            JOINT RightFinger4
                            {
                                OFFSET  -7.435090   0.000000  -3.252850
                                CHANNELS 3 Zrotation Xrotation Yrotation
                                JOINT RightFinger41
                                {
                                    OFFSET  -3.717550   0.000000   0.000000
                                    CHANNELS 3 Zrotation Xrotation Yrotation
                                    JOINT RightFinger42
                                    {
                                        OFFSET  -1.858760   0.000000   0.000000
                                        CHANNELS 3 Zrotation Xrotation Yrotation
                                        End Site
                                        {
                                            OFFSET  -1.818440   0.000000   0.000000
                                        }
                                    }
                                }
                            }
                        }
                    }
                }
            }
        }
    }
    JOINT LeftHip
    {
        OFFSET   9.782990   0.000000   0.000000
        CHANNELS 3 Zrotation Xrotation Yrotation
        JOINT LeftKnee
        {
            OFFSET  -0.000063 -41.789100   0.001657
            CHANNELS 3 Zrotation Xrotation Yrotation
            JOINT LeftAnkle
            {
                OFFSET   0.000078 -41.133200  -0.000113
                CHANNELS 3 Zrotation Xrotation Yrotation
                JOINT LeftToe
                {
                    OFFSET   0.000000  -6.358970  14.674500
                    CHANNELS 3 Zrotation Xrotation Yrotation
                    End Site
                    {
                        OFFSET   0.000000   0.000000   3.913200
                    }
                }
            }
        }
    }
    JOINT RightHip
    {
        OFFSET  -9.782990   0.000000   0.000000
        CHANNELS 3 Zrotation Xrotation Yrotation
        JOINT RightKnee
        {
            OFFSET   0.000053 -41.789200   0.000277
            CHANNELS 3 Zrotation Xrotation Yrotation
            JOINT RightAnkle
            {
                OFFSET   0.000030 -41.133200  -0.000150
                CHANNELS 3 Zrotation Xrotation Yrotation
                JOINT RightToe
                {
                    OFFSET   0.000000  -6.358960  14.674500
                    CHANNELS 3 Zrotation Xrotation Yrotation
                    End Site
                    {
                        OFFSET   0.000000   0.000000   3.913200
                    }
                }
            }
        }
    }
}
MOTION
Frames: 4
Frame Time:   0.016667
  4.369120  89.061500  -2.445470   6.251070 -21.974900  20.287400  -2.591630  14.026300  11.332800  -8.441120  27.200400  24.421500   1.511250  -1.822530   0.047812   2.490590  -3.688200 -25.828300 -10.113000 -13.542800  -0.635210 -63.634700  26.348100 -11.859100   0.625232  -2.715880 -15.687000  13.682500  -4.902980   5.332690  43.303100  39.814200 -68.718300 -32.653400   0.000000   0.000075 -11.326700   0.003049   0.000000 -33.821200   5.345950  -7.916910 -27.974400   0.001458   0.001571 -19.582000  -0.002584   0.002550 -28.621000  -3.067100   5.600070 -40.938700   0.001672   0.001657 -27.265100  -0.005586   0.001047 -28.650100  -3.069910   5.598520 -42.986800  -0.006140   0.003215 -28.629300  -0.004576   0.001146 -36.582400  -3.814010   5.121610 -55.128800  -0.003608   0.001719 -36.715800  -0.002547   0.000584   2.563390  -5.130730  13.731000  48.176500  -7.192220  72.514900 -27.723400 -16.470900  13.884200  -7.301370 -47.261100   5.398870 -48.079800  26.552200  53.359000   5.403640  -0.001529   0.000190  -2.298200  -0.002942   0.001285   4.541440   0.533337   6.688470   3.741120   0.004337   0.001335   2.618760  -0.000548  -0.003879   1.626550   0.135108   4.749210   1.631820   0.001096  -0.000335   1.086790   0.001384   0.002116  -7.759960  -0.503787   3.698000   0.000726   0.001960  -0.006132   0.000487   0.004013  -0.002949   0.596306   0.038818   3.732730   0.872757   0.001701  -0.005472   0.581250   0.001736  -0.002734  -0.884713  23.606900   5.545730  -0.219454   0.045783  -7.578170  -2.076710  -0.469713  -8.600240   0.000000   0.000000   0.000000  -0.135392  21.611900   0.568220  -1.752680  14.660100 -19.975700   4.759980 -11.689700  -8.462030   0.000000   0.000000   0.000000
  4.375180  89.018300  -2.420430   6.273190 -21.941600  20.364000  -2.623350  14.023600  11.348000  -8.509330  27.186100  24.460200   1.504160  -1.844610   0.048252   2.478300  -3.732360 -25.824900 -10.124800 -13.542200  -0.662923 -63.666200  26.098500 -11.735500   0.610798  -2.694820 -15.682300  13.645300  -4.871430   5.294580  43.487000  40.010000 -69.128300 -32.576100   0.000000   0.000060 -11.288000   0.003023  -0.000000 -33.825900   5.452830  -8.071070 -27.990600   0.001668   0.001566 -19.593400  -0.002644   0.002829 -28.631100  -2.980530   5.440850 -41.010400   0.001671   0.001660 -27.313000  -0.005585   0.001047 -28.658200  -2.983100   5.439430 -43.044100  -0.006145   0.003202 -28.667400  -0.004577   0.001145 -36.618500  -3.708390   4.974200 -55.169400  -0.003610   0.001736 -36.742800  -0.002547   0.000536   2.553600  -5.151210  13.704500  48.175200  -7.181950  72.510200 -27.650300 -16.594100  13.853200  -7.281810 -47.490300   5.425260 -48.173800  26.720300  53.568700   5.302850  -0.001450   0.000148  -2.348610  -0.003036   0.001345   4.686590   0.556266   6.755140   3.861330   0.004438   0.001320   2.702920  -0.000633  -0.003567   1.910170   0.163142   4.864290   1.916870   0.001194  -0.000392   1.276620   0.001480   0.002221  -7.311620  -0.498007   3.881510   0.000752   0.002080  -0.005929   0.000513   0.004243  -0.002662   0.760121   0.052121   3.913310   1.142520   0.001910  -0.005307   0.760917   0.001906  -0.002482  -0.886913  23.584600   5.517950  -0.229903   0.062360  -7.601580  -2.103270  -0.459623  -8.622610  -0.000000   0.000000  -0.000000  -0.117669  21.526100   0.500831  -1.818940  14.764100 -19.990500   4.795510 -11.709100  -8.467230   0.000000   0.000000   0.000000
  4.374090  89.027800  -2.402630   6.289070 -21.904100  20.422800  -2.652130  14.023500  11.354900  -8.570120  27.178100  24.481500   1.493190  -1.874590   0.048753   2.460080  -3.792870 -25.780200 -10.128000 -13.546100  -0.678335 -63.674100  25.931400 -11.623700   0.589848  -2.675170 -15.727500  13.589600  -4.812730   5.235200  43.627100  40.158400 -69.480600 -32.501400   0.000000   0.000025 -11.250700   0.002989   0.000037 -33.845200   5.557340  -8.217380 -28.018400   0.001874   0.001571 -19.612900  -0.002700   0.003115 -28.643900  -2.893420   5.280610 -41.087700   0.001672   0.001657 -27.364500  -0.005589   0.001048 -28.666500  -2.895760   5.279330 -43.109300  -0.006155   0.003206 -28.710800  -0.004578   0.001148 -36.668800  -3.603190   4.825050 -55.231000  -0.003608   0.001734 -36.783900  -0.002549   0.000490   2.537620  -5.179050  13.674800  48.177400  -7.163860  72.545700 -27.618300 -16.652100  13.843700  -7.264210 -47.633500   5.435310 -48.162100  26.778400  53.745600   5.369220  -0.001391   0.000159  -2.315410  -0.003131   0.001415   4.913930   0.585091   6.782890   4.048730   0.004534   0.001295   2.834110  -0.000733  -0.003267   2.178390   0.188361   4.953020   2.186280   0.001291  -0.000446   1.456060   0.001571   0.002319  -6.844570  -0.483461   4.011520   0.000786   0.002189  -0.005740   0.000535   0.004481  -0.002371   0.923614   0.064969   4.040360   1.390110   0.002129  -0.005140   0.925804   0.002092  -0.002224  -0.896045  23.546600   5.490410  -0.234211   0.103758  -7.648140  -2.113660  -0.476697  -8.602890  -0.000000   0.000000   0.000000  -0.101055  21.551500   0.453204  -1.883790  14.745800 -19.997900   4.830590 -11.718100  -8.471790  -0.000000   0.000000  -0.000000
  4.366440  89.057400  -2.387880   6.289170 -21.869400  20.445100  -2.676630  14.023600  11.357900  -8.621650  27.173300  24.493700   1.481480  -1.908590   0.049325   2.441490  -3.861920 -25.709400 -10.127300 -13.554400  -0.688982 -63.671900  25.821700 -11.533700   0.570526  -2.651380 -15.806900  13.537100  -4.750420   5.174020  43.697500  40.231200 -69.667600 -32.460400   0.000000   0.000000 -11.230200   0.002957   0.000073 -33.859500   5.614980  -8.296970 -28.036700   0.002078   0.001576 -19.625700  -0.002753   0.003402 -28.651600  -2.844680   5.190980 -41.131000   0.001673   0.001653 -27.393300  -0.005593   0.001049 -28.671000  -2.846890   5.189770 -43.146800  -0.006162   0.003209 -28.735700  -0.004579   0.001152 -36.700100  -3.544560   4.741440 -55.270300  -0.003607   0.001732 -36.810000  -0.002551   0.000445   2.522310  -5.211170  13.644100  48.169500  -7.129010  72.610900 -27.610200 -16.673900  13.842300  -7.245900 -47.738100   5.441390 -48.125700  26.799900  53.886600   5.435590  -0.001337   0.000181  -2.282220  -0.003227   0.001483   5.174030   0.622324   6.845900   4.263370   0.004627   0.001268   2.984380  -0.000839  -0.002968   2.441850   0.215043   5.053540   2.450980   0.001392  -0.000498   1.632350   0.001663   0.002418  -6.353520  -0.460984   4.115240   0.000807   0.002298  -0.005548   0.000547   0.004723  -0.002073   1.094200   0.078770   4.140780   1.645230   0.002354  -0.004970   1.095720   0.002284  -0.001962  -0.905773  23.521700   5.463000  -0.234888   0.133551  -7.698250  -2.116940  -0.493814  -8.552170  -0.000000   0.000000  -0.000000  -0.088854  21.579700   0.419206  -1.933250  14.714100 -20.001200   4.860090 -11.719500  -8.472630  -0.000000   0.000000  -0.000000
